<svg width="32" height="32" viewBox="0 0 32 32" fill="none" xmlns="http://www.w3.org/2000/svg">
<rect x="0.5" y="0.5" width="31" height="31" rx="15.5" fill="white" stroke="#34A5E5"/>
<path d="M13.5484 23.7053C13.2142 24.0219 12.8166 24.0789 12.429 23.8981C12.017 23.7062 11.7549 23.3022 11.7751 22.8962C11.7891 22.6215 11.9296 22.4117 12.1259 22.2235M13.5484 23.7053L13.8922 24.0684C13.4103 24.5248 12.7928 24.6195 12.2176 24.3512M13.5484 23.7053C14.2926 23.0004 15.0325 22.2914 15.7605 21.5713M13.5484 23.7053L13.8923 24.0683C14.6029 23.3952 15.3111 22.7169 16.0096 22.0281M12.2176 24.3512C12.2177 24.3512 12.2178 24.3513 12.2179 24.3513L12.4289 23.8983L12.2176 24.3512ZM12.2176 24.3512C11.6474 24.0855 11.244 23.5076 11.2757 22.8713L11.2758 22.8708C11.2988 22.4177 11.5368 22.0957 11.7797 21.8627L12.1259 22.2235M12.1259 22.2235L11.7798 21.8627M12.1259 22.2235C12.8902 21.4903 13.6528 20.7556 14.4152 20.0209L14.4155 20.0207L14.4162 20.0201L14.7271 19.7205C14.5194 19.693 14.3137 19.6601 14.1103 19.6204M11.7798 21.8627L10.8248 16.1666C10.6016 16.4738 10.4686 16.8275 10.5063 17.2064C10.544 17.5852 10.7441 17.907 11.0253 18.1665L11.0254 18.1666C11.1373 18.2698 11.2647 18.3643 11.3651 18.4388C11.3874 18.4553 11.4085 18.4709 11.4277 18.4854L11.4282 18.4858C12.2434 19.0984 13.1508 19.4335 14.1103 19.6204M11.7798 21.8627C12.5437 21.1298 13.306 20.3954 14.0685 19.6607C14.0824 19.6473 14.0964 19.6339 14.1103 19.6204M11.7798 21.8627L14.1103 19.6204M15.7605 21.5713L21.2257 16.2447M15.7605 21.5713L15.9964 21.8099L15.7605 21.5713ZM15.7605 21.5713L15.9963 21.8099M15.7605 21.5713L15.9963 21.8099M16.0096 22.0281C16.4545 22.4718 16.9119 22.9087 17.3646 23.3411C17.602 23.5678 17.838 23.7933 18.0704 24.0179M16.0096 22.0281C15.9709 21.9895 15.9322 21.9508 15.8937 21.912M16.0096 22.0281C16.0438 21.9944 16.0779 21.9607 16.112 21.927L15.8937 21.912M18.0704 24.0179C18.3098 24.2496 18.628 24.4602 19.0591 24.4888L19.0594 24.4888C19.7042 24.5312 20.3271 24.1443 20.6068 23.5705L20.6069 23.5705C20.8867 22.9961 20.762 22.3734 20.2915 21.9162L20.2914 21.9162C19.6832 21.3253 19.071 20.7361 18.4597 20.148C18.2748 19.97 18.0899 19.7921 17.9052 19.6142M18.0704 24.0179L18.4177 23.659L18.0706 24.0181C18.0705 24.018 18.0705 24.0179 18.0704 24.0179ZM17.9052 19.6142C18.3049 19.5367 18.7039 19.4338 19.0875 19.2909L19.0875 19.2909C19.8313 19.0137 20.5149 18.6112 21.0886 18.0454L21.0887 18.0453C21.3358 17.8015 21.4838 17.4988 21.4988 17.1594C21.5133 16.8301 21.4005 16.5184 21.2257 16.2447M17.9052 19.6142C17.6996 19.6541 17.4938 19.6872 17.2899 19.7156L21.2257 16.2447M17.9052 19.6142C17.7566 19.4711 17.6081 19.3279 17.4598 19.1848C17.9589 19.1056 18.4515 18.9942 18.9129 18.8224C19.6019 18.5656 20.2219 18.1978 20.7375 17.6894C21.0736 17.3578 21.0771 16.9409 20.8043 16.5138L21.2257 16.2447M15.8937 21.912C15.8706 21.8888 15.8597 21.8809 15.8598 21.8808C15.8598 21.8808 15.8631 21.8831 15.8694 21.8866C15.8775 21.891 15.8892 21.8966 15.904 21.9018L15.9963 21.8099M15.8937 21.912L15.9963 21.8099M12.7419 15.7232L12.7421 15.7232C12.8742 15.7832 12.9933 15.8547 13.0977 15.9242C14.7888 17.0402 17.1183 17.0708 18.8113 15.9839C19.0251 15.828 19.2783 15.6832 19.5855 15.6071L19.5859 15.607C20.2265 15.449 20.8648 15.6794 21.2257 16.2446L12.7419 15.7232ZM12.7419 15.7232C12.0469 15.4083 11.2818 15.5375 10.8249 16.1666L12.7419 15.7232ZM20.7068 12.1044V12.1045C20.6933 14.6154 18.5433 16.607 15.965 16.5985C13.4035 16.5901 11.2732 14.5483 11.2884 12.0373L20.7068 12.1044ZM20.7068 12.1044C20.7199 9.55017 18.612 7.50673 16.0186 7.50002C13.4348 7.49313 11.3034 9.5038 11.2884 12.0373L20.7068 12.1044ZM14.5562 19.1908C13.5124 19.0284 12.5619 18.7123 11.7285 18.0861L14.5562 19.1908ZM16.0386 21.9183C15.9823 21.9232 15.936 21.9132 15.9042 21.9019L15.9964 21.81L16.0939 21.9087C16.0779 21.9129 16.0595 21.9165 16.0386 21.9183ZM16.0941 21.9086L15.9965 21.81L16.1642 21.8789C16.1644 21.8787 16.1645 21.8787 16.1643 21.8788C16.1612 21.8809 16.1366 21.8973 16.0941 21.9086ZM16 10.5682H16.0001C16.8859 10.5689 17.5569 11.2399 17.5599 12.0475C17.5626 12.8538 16.8942 13.5285 16.0095 13.5315H16.0094C15.1172 13.5347 14.4425 12.8657 14.4363 12.0656L14.4363 12.0654C14.4298 11.2507 15.107 10.5673 16 10.5682Z" fill="#34A5E5" stroke="#34A5E5"/>
</svg>
