<svg width="110" height="110" viewBox="0 0 110 110" fill="none" xmlns="http://www.w3.org/2000/svg">
<g filter="url(#filter0_d_0_157)">
<circle cx="55" cy="50" r="40" fill="#84AF5A"/>
</g>
<path d="M74.3125 46.2C73.795 46.2 73.375 46.6256 73.375 47.15C73.375 47.6744 73.795 48.1 74.3125 48.1C74.83 48.1 75.25 47.6744 75.25 47.15C75.25 46.6256 74.83 46.2 74.3125 46.2Z" fill="white"/>
<path d="M35.6875 46.2C35.17 46.2 34.75 46.6256 34.75 47.15C34.75 47.6744 35.17 48.1 35.6875 48.1C36.205 48.1 36.625 47.6744 36.625 47.15C36.625 46.6256 36.205 46.2 35.6875 46.2Z" fill="white"/>
<path d="M76.1875 31H52.6834C51.9212 31 51.1811 31.3199 50.6528 31.8779L46.3706 36.4063C46.1933 36.5929 45.9462 36.7 45.6925 36.7H44.6875V33.85C44.6875 33.3253 44.2678 32.9 43.75 32.9H35.6875C35.1697 32.9 34.75 33.3253 34.75 33.85V36.7C32.6823 36.7 31 38.4047 31 40.5V65.2C31 67.2953 32.6823 69 34.75 69H75.25C77.3177 69 79 67.2953 79 65.2V33.85C79 32.2785 77.7383 31 76.1875 31ZM36.625 34.8H42.8125V36.7H36.625V34.8ZM32.875 44.3H46.2086C44.052 46.5793 42.8125 49.6355 42.8125 52.85C42.8125 56.0645 44.052 59.1208 46.2086 61.4H32.875V44.3ZM49.1184 44.2656C50.8488 43.0451 52.8826 42.4 55 42.4C57.1174 42.4 59.1512 43.0451 60.8816 44.2656L60.8818 44.2657C63.6561 46.2218 65.3125 49.4308 65.3125 52.85C65.3125 56.2692 63.6561 59.4782 60.8816 61.4344C59.1512 62.6549 57.1174 63.3 55 63.3C52.8826 63.3 50.8488 62.6549 49.1182 61.4343C46.3438 59.4782 44.6875 56.2691 44.6875 52.85C44.6875 49.4309 46.3438 46.2218 49.1184 44.2656ZM77.125 65.2C77.125 66.2477 76.2839 67.1 75.25 67.1H34.75C33.7161 67.1 32.875 66.2477 32.875 65.2V63.3H48.49C48.4947 63.3 48.4991 63.2993 48.5038 63.2993C50.4473 64.5437 52.6813 65.2 55 65.2C57.3188 65.2 59.5528 64.5437 61.4962 63.2993C61.5009 63.2994 61.5054 63.3 61.5101 63.3H77.125V65.2ZM77.125 61.4H63.7914C65.948 59.1207 67.1875 56.0644 67.1875 52.85C67.1875 49.6355 65.948 46.5792 63.7914 44.3H77.125V61.4ZM77.125 42.4H61.51C61.5053 42.4 61.5008 42.4007 61.4962 42.4007C59.5527 41.1563 57.3187 40.5 55 40.5C52.6813 40.5 50.4472 41.1563 48.5038 42.4007C48.4992 42.4006 48.4947 42.4 48.49 42.4H32.875V40.5C32.875 39.4523 33.7161 38.6 34.75 38.6H45.6925C46.4534 38.6 47.1931 38.2805 47.7231 37.7221L52.0062 33.1929C52.1823 33.0068 52.4292 32.9 52.6834 32.9H76.1875C76.7044 32.9 77.125 33.3262 77.125 33.85V42.4Z" fill="white"/>
<path d="M74.3125 34.8H66.25C65.7323 34.8 65.3125 35.2253 65.3125 35.75V39.55C65.3125 40.0747 65.7323 40.5 66.25 40.5H74.3125C74.8302 40.5 75.25 40.0747 75.25 39.55V35.75C75.25 35.2253 74.8302 34.8 74.3125 34.8ZM73.375 38.6H67.1875V36.7H73.375V38.6Z" fill="white"/>
<path d="M74.3125 50C73.7948 50 73.375 50.4253 73.375 50.95V58.55C73.375 59.0747 73.7948 59.5 74.3125 59.5C74.8302 59.5 75.25 59.0747 75.25 58.55V50.95C75.25 50.4253 74.8302 50 74.3125 50Z" fill="white"/>
<path d="M35.6875 50C35.1697 50 34.75 50.4253 34.75 50.95V58.55C34.75 59.0747 35.1697 59.5 35.6875 59.5C36.2053 59.5 36.625 59.0747 36.625 58.55V50.95C36.625 50.4253 36.2053 50 35.6875 50Z" fill="white"/>
<path d="M55 46.2C51.3814 46.2 48.4375 49.1832 48.4375 52.85C48.4375 56.5168 51.3814 59.5 55 59.5C58.6186 59.5 61.5625 56.5168 61.5625 52.85C61.5625 49.1832 58.6186 46.2 55 46.2ZM55 57.6C52.4153 57.6 50.3125 55.4692 50.3125 52.85C50.3125 50.2309 52.4153 48.1 55 48.1C57.5847 48.1 59.6875 50.2309 59.6875 52.85C59.6875 55.4692 57.5847 57.6 55 57.6Z" fill="white"/>
<defs>
<filter id="filter0_d_0_157" x="0" y="0" width="110" height="110" filterUnits="userSpaceOnUse" color-interpolation-filters="sRGB">
<feFlood flood-opacity="0" result="BackgroundImageFix"/>
<feColorMatrix in="SourceAlpha" type="matrix" values="0 0 0 0 0 0 0 0 0 0 0 0 0 0 0 0 0 0 127 0" result="hardAlpha"/>
<feOffset dy="5"/>
<feGaussianBlur stdDeviation="7.5"/>
<feColorMatrix type="matrix" values="0 0 0 0 0 0 0 0 0 0 0 0 0 0 0 0 0 0 0.07 0"/>
<feBlend mode="normal" in2="BackgroundImageFix" result="effect1_dropShadow_0_157"/>
<feBlend mode="normal" in="SourceGraphic" in2="effect1_dropShadow_0_157" result="shape"/>
</filter>
</defs>
</svg>
