<svg width="110" height="110" viewBox="0 0 110 110" fill="none" xmlns="http://www.w3.org/2000/svg">
<g filter="url(#filter0_d_0_152)">
<circle cx="55" cy="50" r="40" fill="#84AF5A"/>
</g>
<path d="M61.0891 44.731C58.9172 43.7003 56.5938 43.1777 54.1833 43.1777C53.6655 43.1777 53.2458 43.5975 53.2458 44.1152C53.2458 44.6329 53.6656 45.0526 54.1834 45.0526C56.3137 45.0526 58.3666 45.5143 60.2853 46.4248C60.415 46.4864 60.5518 46.5156 60.6865 46.5156C61.0374 46.5156 61.3737 46.3179 61.5341 45.9798C61.7561 45.5121 61.5569 44.953 61.0891 44.731Z" fill="white"/>
<path d="M48.3453 44.2768C43.1285 46.3229 39.3192 51.021 38.404 56.5374C38.3192 57.0483 38.6646 57.531 39.1754 57.6157C39.2275 57.6243 39.279 57.6286 39.33 57.6286C39.7803 57.6286 40.1776 57.3031 40.2538 56.8443C41.0614 51.9754 44.4243 47.8287 49.03 46.0223C49.512 45.8332 49.7495 45.2893 49.5604 44.8072C49.3713 44.3252 48.8273 44.0879 48.3453 44.2768Z" fill="white"/>
<path d="M78.0625 59.5385H76.2946C76.1053 54.1563 73.8918 49.1158 70.0102 45.2744C67.1016 42.3959 63.5184 40.4464 59.6263 39.576C59.5984 37.0482 57.5344 35 55.0001 35C52.4759 35 50.4186 37.0318 50.3747 39.5457C46.4395 40.4003 42.8251 42.3624 39.9095 45.2779C36.0773 49.1101 33.8919 54.1496 33.7053 59.5385H31.9375C31.4197 59.5385 31 59.9583 31 60.476C31 60.9937 31.4197 61.4135 31.9375 61.4135H78.0625C78.5803 61.4135 79 60.9937 79 60.476C79 59.9583 78.5803 59.5385 78.0625 59.5385ZM55 36.875C56.3867 36.875 57.5366 37.906 57.7248 39.2416C56.8027 39.1214 55.8675 39.059 54.923 39.059C54.0316 39.059 53.1485 39.1137 52.2776 39.2213C52.4747 37.8955 53.6203 36.875 55 36.875ZM35.5817 59.5385C35.9788 49.2125 44.5016 40.934 54.9231 40.934C65.4273 40.934 74.0179 49.2125 74.4183 59.5385H35.5817Z" fill="white"/>
<defs>
<filter id="filter0_d_0_152" x="0" y="0" width="110" height="110" filterUnits="userSpaceOnUse" color-interpolation-filters="sRGB">
<feFlood flood-opacity="0" result="BackgroundImageFix"/>
<feColorMatrix in="SourceAlpha" type="matrix" values="0 0 0 0 0 0 0 0 0 0 0 0 0 0 0 0 0 0 127 0" result="hardAlpha"/>
<feOffset dy="5"/>
<feGaussianBlur stdDeviation="7.5"/>
<feColorMatrix type="matrix" values="0 0 0 0 0 0 0 0 0 0 0 0 0 0 0 0 0 0 0.07 0"/>
<feBlend mode="normal" in2="BackgroundImageFix" result="effect1_dropShadow_0_152"/>
<feBlend mode="normal" in="SourceGraphic" in2="effect1_dropShadow_0_152" result="shape"/>
</filter>
</defs>
</svg>
