<svg width="110" height="110" viewBox="0 0 110 110" fill="none" xmlns="http://www.w3.org/2000/svg">
<g filter="url(#filter0_d_0_162)">
<circle cx="55" cy="50" r="40" fill="#84AF5A"/>
</g>
<path d="M57.0699 48.5215C56.883 48.6416 56.2501 48.7788 55.7218 48.8125H52.1875C51.6697 48.8125 51.25 49.2323 51.25 49.75C51.25 50.2677 51.6697 50.6875 52.1875 50.6875H55.75C55.7673 50.6875 55.7847 50.687 55.802 50.686C56.607 50.6413 58.0398 50.4426 58.5925 49.6139C59.2282 48.6604 57.7872 47.5885 57.0699 48.5215Z" fill="white"/>
<path d="M57.2969 31.5625H48.8594C48.3428 31.5625 47.9219 31.9834 47.9219 32.5C47.9219 33.0166 48.3428 33.4375 48.8594 33.4375H57.2969C57.8134 33.4375 58.2344 33.0166 58.2344 32.5C58.2344 31.9834 57.8133 31.5625 57.2969 31.5625Z" fill="white"/>
<path d="M61.0469 31.5625C60.5303 31.5625 60.1094 31.9834 60.1094 32.5C60.1094 33.0166 60.5303 33.4375 61.0469 33.4375C61.5634 33.4375 61.9844 33.0166 61.9844 32.5C61.9844 31.9834 61.5633 31.5625 61.0469 31.5625Z" fill="white"/>
<path d="M75.7416 57.1158L78.675 54.5848C79.0231 54.2844 79.102 53.776 78.8612 53.3842L74.83 46.8217C74.6798 46.5772 74.4258 46.4149 74.1408 46.3814C73.8566 46.348 73.5713 46.4466 73.3683 46.6495L67.1966 52.8212C67.1635 52.8107 67.1305 52.801 67.0975 52.7907C67.096 52.7902 67.0945 52.7898 67.0918 52.7889C65.7615 52.3725 64.445 52.0581 63.2008 51.8618C64.7823 49.9311 65.8523 47.444 66.1593 44.6875H68.1249V46.5625C68.1249 47.0802 68.5447 47.5 69.0624 47.5C69.5801 47.5 69.9999 47.0802 69.9999 46.5625V36.25C69.9999 35.7323 69.5801 35.3125 69.0624 35.3125H67.6118C67.0741 29.5463 61.6234 25 55 25C48.3766 25 42.9258 29.5463 42.388 35.3125H40.9375C40.4197 35.3125 40 35.7323 40 36.25V46.5625C40 47.0802 40.4197 47.5 40.9375 47.5C41.4553 47.5 41.875 47.0802 41.875 46.5625V44.6875H43.8407C44.1475 47.4437 45.2172 49.9304 46.7984 51.861C44.3486 52.2473 41.6162 53.0935 39.0583 54.2716C39.0541 54.2735 39.0497 54.2754 39.0448 54.2777C36.7868 55.3188 34.514 56.6231 32.781 58.4325C31.8478 59.4066 31 60.6478 31 62.0485V72.0625C31 72.5802 31.4197 73 31.9375 73H78.0624C78.5801 73 78.9999 72.5802 78.9999 72.0625V62.0485C78.9999 60.1683 77.451 58.4451 75.7416 57.1158ZM38.5 71.125H32.875V62.0485C32.875 61.2142 33.557 60.1895 34.75 59.1351C34.75 59.1351 34.75 62.5903 34.75 62.5938C34.75 63.2197 35.4011 63.692 36.0038 63.4764L38.5 62.5818V71.125ZM38.5 60.5901L36.625 61.262C36.625 61.262 36.625 57.73 36.625 57.7282C36.625 57.6393 37.2092 57.3685 37.28 57.3269C37.6838 57.0895 38.0856 56.8533 38.5 56.6356V60.5901ZM73.8542 48.8153L76.8462 53.6862L75.1816 55.1225L72.1419 50.5277L73.8542 48.8153ZM70.7888 51.8807L73.0976 55.3709C71.8336 54.6536 70.5099 54.0411 69.1562 53.5134L70.7888 51.8807ZM73.3749 57.7282V61.2619L71.4999 60.59V56.6356C72.1403 56.9723 72.7682 57.3339 73.3749 57.7282ZM64 53.9189C64.6123 54.0476 65.2404 54.2051 65.875 54.3872V58.5744L64 57.9025V53.9189ZM68.1249 42.8125H66.2499V40.9375H68.1249V42.8125ZM55 26.875C60.5808 26.875 65.1849 30.5818 65.7278 35.3125H44.2722C44.815 30.5818 49.4191 26.875 55 26.875ZM43.75 42.8125H41.875V40.9375H43.75V42.8125ZM41.875 39.0625V37.1875H68.125V39.0625H41.875ZM45.625 43.0469V40.9375H64.375V43.0469C64.375 49.1209 60.1694 54.0625 55 54.0625C49.8306 54.0625 45.625 49.1209 45.625 43.0469ZM44.125 54.3874C44.7596 54.2054 45.3877 54.0479 46 53.9192V57.9026L44.125 58.5745V54.3874ZM44.125 60.5662L47.2537 59.4451C47.6264 59.3115 47.8749 58.9584 47.8749 58.5625V53.6078C48.0802 53.5837 48.2829 53.5629 48.4813 53.547C50.3217 55.0514 52.5721 55.9375 55 55.9375C57.4281 55.9375 59.6789 55.0511 61.5193 53.5464C61.7175 53.5623 61.9199 53.5832 62.125 53.6073V58.5625C62.125 58.9584 62.3736 59.3115 62.7463 59.4451L65.875 60.5662V62.2188H44.125V60.5662ZM48.8125 71.125H44.125V67.8438H48.8125V71.125ZM65.7812 71.125H61.0938V67.8438H65.7812V71.125ZM69.6249 71.125H67.6562V66.9062C67.6562 66.3886 67.2363 65.9688 66.7187 65.9688H60.1562C59.6385 65.9688 59.2187 66.3886 59.2187 66.9062V71.125H50.6874V66.9062C50.6874 66.3886 50.2677 65.9688 49.7499 65.9688H43.1874C42.6696 65.9688 42.2499 66.3886 42.2499 66.9062V71.125H40.3749C40.3749 71.125 40.3749 55.7399 40.3749 55.7369C40.3789 55.6606 42.2499 55.0514 42.2499 54.9927C42.2499 54.9934 42.2499 63.1562 42.2499 63.1562C42.2499 63.6739 42.6696 64.0938 43.1874 64.0938H66.8124C67.3301 64.0938 67.7499 63.6739 67.7499 63.1562V54.9926C67.7499 55.0371 69.2945 55.5933 69.6249 55.7371V71.125ZM77.1249 71.125H71.4999V62.5818C71.4999 62.5818 73.9936 63.4754 73.9962 63.4763C74.2675 63.5735 74.6054 63.5341 74.852 63.3603C75.1015 63.1848 75.2499 62.8988 75.2499 62.5938V59.135C76.4429 60.1894 77.1249 61.2141 77.1249 62.0484V71.125Z" fill="white"/>
<defs>
<filter id="filter0_d_0_162" x="0" y="0" width="110" height="110" filterUnits="userSpaceOnUse" color-interpolation-filters="sRGB">
<feFlood flood-opacity="0" result="BackgroundImageFix"/>
<feColorMatrix in="SourceAlpha" type="matrix" values="0 0 0 0 0 0 0 0 0 0 0 0 0 0 0 0 0 0 127 0" result="hardAlpha"/>
<feOffset dy="5"/>
<feGaussianBlur stdDeviation="7.5"/>
<feColorMatrix type="matrix" values="0 0 0 0 0 0 0 0 0 0 0 0 0 0 0 0 0 0 0.07 0"/>
<feBlend mode="normal" in2="BackgroundImageFix" result="effect1_dropShadow_0_162"/>
<feBlend mode="normal" in="SourceGraphic" in2="effect1_dropShadow_0_162" result="shape"/>
</filter>
</defs>
</svg>
