<svg width="110" height="110" viewBox="0 0 110 110" fill="none" xmlns="http://www.w3.org/2000/svg">
<g filter="url(#filter0_d_0_167)">
<circle cx="55" cy="50" r="40" fill="#84AF5A"/>
</g>
<path d="M55.5621 33.8096C55.0446 33.8096 54.6246 34.2362 54.6246 34.762C54.6246 35.2877 55.0446 35.7144 55.5621 35.7144C56.0796 35.7144 56.4996 35.2877 56.4996 34.762C56.4996 34.2362 56.0796 33.8096 55.5621 33.8096Z" fill="white"/>
<path d="M78.9421 51.5797C78.8146 50.7419 78.4711 49.9566 77.9399 49.2969L73.4184 43.6826C73.4154 43.6789 73.412 43.6757 73.4089 43.6721L70.9127 40.5725C70.3766 39.906 69.583 39.5237 68.7356 39.5237H62.1245V32.8572C62.1245 31.2817 60.8628 30 59.312 30H33.8125C32.2617 30 31 31.2817 31 32.8572V63.3334C31 63.8593 31.4197 64.2857 31.9375 64.2857H36.6249C36.6249 67.4366 39.1483 70 42.2498 70C45.3513 70 47.8747 67.4365 47.8747 64.2857C51.1425 64.2857 60.2085 64.2857 63.9995 64.2857C63.9995 67.4366 66.5229 70 69.6244 70C72.726 70 75.2493 67.4365 75.2493 64.2857H76.1868C77.7376 64.2857 78.9993 63.004 78.9993 61.4286C78.9958 51.8184 79.0076 52.3186 78.9902 52.0303C79.0095 51.8825 78.9982 51.7364 78.9421 51.5797ZM76.7835 50.9524H65.8745V45.2382H72.2486L76.4886 50.503C76.6019 50.6436 76.6994 50.7945 76.7835 50.9524ZM42.2498 68.0952C40.1821 68.0952 38.4999 66.3862 38.4999 64.2857C38.4999 62.1565 40.2126 60.4763 42.2498 60.4763C44.288 60.4763 45.9997 62.1576 45.9997 64.2857C45.9998 66.3862 44.3176 68.0952 42.2498 68.0952ZM47.5528 62.381C46.7699 60.1335 44.6508 58.5715 42.2498 58.5715C39.8477 58.5715 37.728 60.1347 36.9465 62.381H32.875V32.8572C32.875 32.332 33.2956 31.9048 33.8125 31.9048H59.3121C59.8291 31.9048 60.2496 32.332 60.2496 32.8572V62.381H47.5528ZM69.6244 68.0952C67.5567 68.0952 65.8745 66.3862 65.8745 64.2857C65.8745 62.1565 67.5872 60.4763 69.6244 60.4763C71.6626 60.4763 73.3743 62.1576 73.3743 64.2857C73.3744 66.3862 71.6922 68.0952 69.6244 68.0952ZM76.1868 62.381H74.9273C74.1445 60.1335 72.0255 58.5715 69.6244 58.5715C67.2224 58.5715 65.1026 60.1347 64.3211 62.381H62.1245V41.4286H68.7357C69.0181 41.4286 69.2824 41.5559 69.4613 41.7783L70.7137 43.3334H64.937C64.4192 43.3334 63.9995 43.7599 63.9995 44.2858V51.9048C63.9995 52.4307 64.4192 52.8572 64.937 52.8572H77.1243V54.762H74.3118C73.7941 54.762 73.3743 55.1885 73.3743 55.7144C73.3743 56.2403 73.7941 56.6668 74.3118 56.6668H77.1243V61.4287C77.1243 61.9536 76.7038 62.381 76.1868 62.381Z" fill="white"/>
<path d="M42.2498 62.381C41.2159 62.381 40.3748 63.2354 40.3748 64.2857C40.3748 65.336 41.2159 66.1905 42.2498 66.1905C43.2837 66.1905 44.1248 65.336 44.1248 64.2857C44.1248 63.2354 43.2837 62.381 42.2498 62.381Z" fill="white"/>
<path d="M69.6244 62.381C68.5906 62.381 67.7494 63.2354 67.7494 64.2857C67.7494 65.336 68.5906 66.1905 69.6244 66.1905C70.6583 66.1905 71.4994 65.336 71.4994 64.2857C71.4994 63.2354 70.6583 62.381 69.6244 62.381Z" fill="white"/>
<path d="M51.8122 33.8096H39.4374C38.9196 33.8096 38.4999 34.2361 38.4999 34.762C38.4999 35.2879 38.9196 35.7144 39.4374 35.7144H51.8122C52.33 35.7144 52.7497 35.2879 52.7497 34.762C52.7497 34.2361 52.33 33.8096 51.8122 33.8096Z" fill="white"/>
<defs>
<filter id="filter0_d_0_167" x="0" y="0" width="110" height="110" filterUnits="userSpaceOnUse" color-interpolation-filters="sRGB">
<feFlood flood-opacity="0" result="BackgroundImageFix"/>
<feColorMatrix in="SourceAlpha" type="matrix" values="0 0 0 0 0 0 0 0 0 0 0 0 0 0 0 0 0 0 127 0" result="hardAlpha"/>
<feOffset dy="5"/>
<feGaussianBlur stdDeviation="7.5"/>
<feColorMatrix type="matrix" values="0 0 0 0 0 0 0 0 0 0 0 0 0 0 0 0 0 0 0.07 0"/>
<feBlend mode="normal" in2="BackgroundImageFix" result="effect1_dropShadow_0_167"/>
<feBlend mode="normal" in="SourceGraphic" in2="effect1_dropShadow_0_167" result="shape"/>
</filter>
</defs>
</svg>
