<svg width="38" height="38" viewBox="0 0 38 38" fill="none" xmlns="http://www.w3.org/2000/svg">
<rect width="38" height="38" rx="19" fill="#34A5E6"/>
<path d="M27.3205 10.6798C26.8674 10.2265 26.3243 10 25.6917 10H12.3087C11.6759 10 11.133 10.2266 10.6797 10.6798C10.2265 11.1329 10 11.6758 10 12.3085V25.6913C10 26.324 10.2265 26.8671 10.6797 27.3202C11.133 27.7733 11.676 28 12.3087 28H25.6915C26.3241 28 26.8673 27.7733 27.3204 27.3202C27.7737 26.8671 28 26.324 28 25.6913V12.3085C28 11.6757 27.7737 11.133 27.3205 10.6798ZM16.4631 16.4862C17.1701 15.8027 18.0197 15.4608 19.0119 15.4608C20.0118 15.4608 20.8653 15.8027 21.5724 16.4862C22.2796 17.1699 22.6329 17.9961 22.6329 18.9648C22.6329 19.9334 22.2796 20.7597 21.5724 21.4431C20.8653 22.1269 20.0121 22.4688 19.0119 22.4688C18.0198 22.4688 17.1702 22.1266 16.4631 21.4431C15.756 20.7596 15.4025 19.9334 15.4025 18.9648C15.4025 17.9961 15.756 17.1699 16.4631 16.4862ZM25.9613 25.2111C25.9613 25.414 25.8907 25.5839 25.7502 25.7207C25.6093 25.8574 25.4416 25.9258 25.2461 25.9258H12.7189C12.5158 25.9258 12.3458 25.8574 12.2092 25.7207C12.0724 25.5842 12.004 25.414 12.004 25.2111V17.617H13.6563C13.5001 18.1093 13.422 18.6211 13.422 19.1522C13.422 20.6526 13.9688 21.9316 15.0626 22.9905C16.1565 24.0489 17.4728 24.5783 19.0119 24.5783C20.0275 24.5783 20.965 24.336 21.8247 23.8517C22.684 23.3671 23.3633 22.709 23.8636 21.8769C24.3637 21.0448 24.6137 20.1366 24.6137 19.1523C24.6137 18.6211 24.5353 18.1095 24.3791 17.6171H25.9613L25.9613 25.2111ZM25.9613 14.7459C25.9613 14.9725 25.8831 15.164 25.7266 15.3202C25.5705 15.4765 25.3791 15.5546 25.1524 15.5546H23.1135C22.887 15.5546 22.6954 15.4765 22.5392 15.3202C22.383 15.164 22.3049 14.9725 22.3049 14.7459V12.8125C22.3049 12.5938 22.383 12.4043 22.5392 12.2441C22.6954 12.084 22.887 12.0038 23.1135 12.0038H25.1524C25.3791 12.0038 25.5705 12.084 25.7266 12.2441C25.8831 12.4043 25.9613 12.5938 25.9613 12.8125V14.7459Z" fill="white"/>
</svg>
