<svg width="32" height="32" viewBox="0 0 32 32" fill="none" xmlns="http://www.w3.org/2000/svg">
<rect x="0.5" y="0.5" width="31" height="31" rx="15.5" fill="white" stroke="#34A5E5"/>
<path d="M23.396 8.60427C22.9932 8.20136 22.5105 8 21.9482 8H10.0522C9.48965 8 9.0071 8.20143 8.60419 8.60427C8.20136 9.00699 8 9.48961 8 10.052V21.9479C8 22.5102 8.20133 22.9929 8.60419 23.3957C9.0071 23.7985 9.48976 24 10.0522 24H21.948C22.5103 24 22.9931 23.7985 23.3959 23.3957C23.7988 22.9929 24 22.5102 24 21.9479V10.052C24 9.4895 23.7988 9.00713 23.396 8.60427ZM13.745 13.7655C14.3734 13.158 15.1287 12.8541 16.0106 12.8541C16.8994 12.8541 17.658 13.158 18.2866 13.7655C18.9152 14.3732 19.2293 15.1076 19.2293 15.9687C19.2293 16.8297 18.9152 17.5642 18.2866 18.1717C17.658 18.7795 16.8997 19.0834 16.0106 19.0834C15.1287 19.0834 14.3735 18.7792 13.745 18.1717C13.1164 17.5641 12.8022 16.8297 12.8022 15.9687C12.8022 15.1076 13.1164 14.3732 13.745 13.7655ZM22.1878 21.521C22.1878 21.7014 22.1251 21.8523 22.0002 21.974C21.875 22.0954 21.7259 22.1562 21.5521 22.1562H10.4168C10.2363 22.1562 10.0851 22.0954 9.96371 21.974C9.8421 21.8526 9.78135 21.7014 9.78135 21.521V14.7707H11.2501C11.1112 15.2083 11.0418 15.6632 11.0418 16.1353C11.0418 17.469 11.5279 18.6059 12.5001 19.5471C13.4724 20.4879 14.6425 20.9585 16.0106 20.9585C16.9134 20.9585 17.7467 20.7431 18.5108 20.3126C19.2747 19.8818 19.8785 19.2969 20.3232 18.5572C20.7677 17.8176 20.99 17.0103 20.99 16.1354C20.99 15.6632 20.9203 15.2084 20.7815 14.7707H22.1879L22.1878 21.521ZM22.1878 12.2186C22.1878 12.42 22.1183 12.5902 21.9792 12.729C21.8404 12.868 21.6703 12.9374 21.4688 12.9374H19.6564C19.4551 12.9374 19.2848 12.868 19.146 12.729C19.0071 12.5902 18.9377 12.42 18.9377 12.2186V10.5C18.9377 10.3056 19.0071 10.1372 19.146 9.99478C19.2848 9.85245 19.4551 9.7812 19.6564 9.7812H21.4688C21.6703 9.7812 21.8404 9.85242 21.9792 9.99478C22.1183 10.1372 22.1878 10.3056 22.1878 10.5V12.2186Z" fill="#34A5E5"/>
</svg>
