<svg width="40" height="40" viewBox="0 0 40 40" fill="none" xmlns="http://www.w3.org/2000/svg">
<g filter="url(#filter0_d_0_374)">
<rect x="4" width="32" height="32" rx="16" fill="#34A5E6"/>
<path d="M27.396 8.60427C26.9932 8.20136 26.5105 8 25.9482 8H14.0522C13.4897 8 13.0071 8.20143 12.6042 8.60427C12.2014 9.00699 12 9.48961 12 10.052V21.9479C12 22.5102 12.2013 22.9929 12.6042 23.3957C13.0071 23.7985 13.4898 24 14.0522 24H25.948C26.5103 24 26.9931 23.7985 27.3959 23.3957C27.7988 22.9929 28 22.5102 28 21.9479V10.052C28 9.4895 27.7988 9.00713 27.396 8.60427ZM17.745 13.7655C18.3734 13.158 19.1287 12.8541 20.0106 12.8541C20.8994 12.8541 21.658 13.158 22.2866 13.7655C22.9152 14.3732 23.2293 15.1076 23.2293 15.9687C23.2293 16.8297 22.9152 17.5642 22.2866 18.1717C21.658 18.7795 20.8997 19.0834 20.0106 19.0834C19.1287 19.0834 18.3735 18.7792 17.745 18.1717C17.1164 17.5641 16.8022 16.8297 16.8022 15.9687C16.8022 15.1076 17.1164 14.3732 17.745 13.7655ZM26.1878 21.521C26.1878 21.7014 26.1251 21.8523 26.0002 21.974C25.875 22.0954 25.7259 22.1562 25.5521 22.1562H14.4168C14.2363 22.1562 14.0851 22.0954 13.9637 21.974C13.8421 21.8526 13.7814 21.7014 13.7814 21.521V14.7707H15.2501C15.1112 15.2083 15.0418 15.6632 15.0418 16.1353C15.0418 17.469 15.5279 18.6059 16.5001 19.5471C17.4724 20.4879 18.6425 20.9585 20.0106 20.9585C20.9134 20.9585 21.7467 20.7431 22.5108 20.3126C23.2747 19.8818 23.8785 19.2969 24.3232 18.5572C24.7677 17.8176 24.99 17.0103 24.99 16.1354C24.99 15.6632 24.9203 15.2084 24.7815 14.7707H26.1879L26.1878 21.521ZM26.1878 12.2186C26.1878 12.42 26.1183 12.5902 25.9792 12.729C25.8404 12.868 25.6703 12.9374 25.4688 12.9374H23.6564C23.4551 12.9374 23.2848 12.868 23.146 12.729C23.0071 12.5902 22.9377 12.42 22.9377 12.2186V10.5C22.9377 10.3056 23.0071 10.1372 23.146 9.99478C23.2848 9.85245 23.4551 9.7812 23.6564 9.7812H25.4688C25.6703 9.7812 25.8404 9.85242 25.9792 9.99478C26.1183 10.1372 26.1878 10.3056 26.1878 10.5V12.2186Z" fill="white"/>
</g>
<defs>
<filter id="filter0_d_0_374" x="0" y="0" width="40" height="40" filterUnits="userSpaceOnUse" color-interpolation-filters="sRGB">
<feFlood flood-opacity="0" result="BackgroundImageFix"/>
<feColorMatrix in="SourceAlpha" type="matrix" values="0 0 0 0 0 0 0 0 0 0 0 0 0 0 0 0 0 0 127 0" result="hardAlpha"/>
<feOffset dy="4"/>
<feGaussianBlur stdDeviation="2"/>
<feComposite in2="hardAlpha" operator="out"/>
<feColorMatrix type="matrix" values="0 0 0 0 0 0 0 0 0 0 0 0 0 0 0 0 0 0 0.25 0"/>
<feBlend mode="normal" in2="BackgroundImageFix" result="effect1_dropShadow_0_374"/>
<feBlend mode="normal" in="SourceGraphic" in2="effect1_dropShadow_0_374" result="shape"/>
</filter>
</defs>
</svg>
