<svg width="40" height="40" viewBox="0 0 40 40" fill="none" xmlns="http://www.w3.org/2000/svg">
<g filter="url(#filter0_d_0_377)">
<rect x="4" width="32" height="32" rx="16" fill="#34A5E6"/>
<path d="M19.1802 19.2698C17.8892 19.1404 16.7252 18.8349 15.7285 18.0861C15.6049 17.9929 15.4772 17.9031 15.3644 17.799C14.9281 17.3965 14.8842 16.9355 15.2294 16.4605C15.5247 16.0539 16.0203 15.9452 16.5356 16.1786C16.6353 16.2239 16.7304 16.2803 16.8214 16.341C18.6788 17.5671 21.2303 17.6009 23.0947 16.3961C23.2794 16.26 23.4768 16.1491 23.7057 16.0925C24.1506 15.9827 24.5655 16.1397 24.8043 16.5138C25.0771 16.9409 25.0736 17.3578 24.7375 17.6894C24.2219 18.1978 23.6019 18.5656 22.9129 18.8224C22.2615 19.065 21.5479 19.1872 20.8417 19.2683C20.9483 19.3797 20.9985 19.4345 21.0652 19.4988C22.0241 20.4245 22.9872 21.3463 23.943 22.2748C24.2687 22.5912 24.3367 22.9835 24.1574 23.3514C23.9614 23.7536 23.5225 24.0182 23.0922 23.9899C22.8196 23.9718 22.607 23.8414 22.4181 23.6586C21.6945 22.959 20.9572 22.2723 20.2482 21.5594C20.0419 21.3522 19.9426 21.3914 19.7605 21.5713C19.0325 22.2914 18.2926 23.0004 17.5484 23.7053C17.2142 24.0219 16.8166 24.0789 16.429 23.8981C16.017 23.7062 15.7549 23.3022 15.7751 22.8962C15.7891 22.6215 15.9296 22.4117 16.1259 22.2235C17.0749 21.3131 18.0212 20.4004 18.968 19.4885C19.0306 19.4278 19.089 19.3634 19.1802 19.2698Z" fill="white"/>
<path d="M19.9667 16.0985C17.6635 16.091 15.7749 14.2566 15.7884 12.0403C15.8016 9.79955 17.6914 7.99382 20.0173 8.00002C22.3478 8.00605 24.2184 9.83776 24.2068 12.1018C24.1949 14.3136 22.2932 16.1062 19.9667 16.0985ZM22.0599 12.0457C22.0559 10.9452 21.1437 10.0692 20.0005 10.0682C18.8478 10.067 17.9274 10.959 17.9363 12.0695C17.9449 13.1657 18.8649 14.0356 20.0112 14.0315C21.1539 14.0277 22.0637 13.1459 22.0599 12.0457Z" fill="white"/>
</g>
<defs>
<filter id="filter0_d_0_377" x="0" y="0" width="40" height="40" filterUnits="userSpaceOnUse" color-interpolation-filters="sRGB">
<feFlood flood-opacity="0" result="BackgroundImageFix"/>
<feColorMatrix in="SourceAlpha" type="matrix" values="0 0 0 0 0 0 0 0 0 0 0 0 0 0 0 0 0 0 127 0" result="hardAlpha"/>
<feOffset dy="4"/>
<feGaussianBlur stdDeviation="2"/>
<feComposite in2="hardAlpha" operator="out"/>
<feColorMatrix type="matrix" values="0 0 0 0 0 0 0 0 0 0 0 0 0 0 0 0 0 0 0.25 0"/>
<feBlend mode="normal" in2="BackgroundImageFix" result="effect1_dropShadow_0_377"/>
<feBlend mode="normal" in="SourceGraphic" in2="effect1_dropShadow_0_377" result="shape"/>
</filter>
</defs>
</svg>
