<svg width="38" height="38" viewBox="0 0 38 38" fill="none" xmlns="http://www.w3.org/2000/svg">
<rect width="38" height="38" rx="19" fill="#34A5E6"/>
<path d="M18.1802 22.2698C16.8892 22.1404 15.7252 21.8349 14.7285 21.0861C14.6049 20.9929 14.4772 20.9031 14.3644 20.799C13.9281 20.3965 13.8842 19.9355 14.2294 19.4605C14.5247 19.0539 15.0203 18.9452 15.5356 19.1786C15.6353 19.2239 15.7304 19.2803 15.8214 19.341C17.6788 20.5671 20.2303 20.6009 22.0947 19.3961C22.2794 19.26 22.4768 19.1491 22.7057 19.0925C23.1506 18.9827 23.5655 19.1397 23.8043 19.5138C24.0771 19.9409 24.0736 20.3578 23.7375 20.6894C23.2219 21.1978 22.6019 21.5656 21.9129 21.8224C21.2615 22.065 20.5479 22.1872 19.8417 22.2683C19.9483 22.3797 19.9985 22.4345 20.0652 22.4988C21.0241 23.4245 21.9872 24.3463 22.943 25.2748C23.2687 25.5912 23.3367 25.9835 23.1574 26.3514C22.9614 26.7536 22.5225 27.0182 22.0922 26.9899C21.8196 26.9718 21.607 26.8414 21.4181 26.6586C20.6945 25.959 19.9572 25.2723 19.2482 24.5594C19.0419 24.3522 18.9426 24.3914 18.7605 24.5713C18.0325 25.2914 17.2926 26.0004 16.5484 26.7053C16.2142 27.0219 15.8166 27.0789 15.429 26.8981C15.017 26.7062 14.7549 26.3022 14.7751 25.8962C14.7891 25.6215 14.9296 25.4117 15.1259 25.2235C16.0749 24.3131 17.0212 23.4004 17.968 22.4885C18.0306 22.4278 18.089 22.3634 18.1802 22.2698Z" fill="white"/>
<path d="M18.9667 19.0985C16.6635 19.091 14.7749 17.2566 14.7884 15.0403C14.8016 12.7995 16.6914 10.9938 19.0173 11C21.3478 11.006 23.2184 12.8378 23.2068 15.1018C23.1949 17.3136 21.2932 19.1062 18.9667 19.0985ZM21.0599 15.0457C21.0559 13.9452 20.1437 13.0692 19.0005 13.0682C17.8478 13.067 16.9274 13.959 16.9363 15.0695C16.9449 16.1657 17.8649 17.0356 19.0112 17.0315C20.1539 17.0277 21.0637 16.1459 21.0599 15.0457Z" fill="white"/>
</svg>
