<svg width="32" height="32" viewBox="0 0 32 32" fill="none" xmlns="http://www.w3.org/2000/svg">
<rect x="1" y="1" width="30" height="30" rx="15" fill="white" stroke="#34A5E6" stroke-width="2"/>
<path d="M23.9151 20.0311C23.8958 19.9854 23.8777 19.9474 23.8609 19.917C23.5833 19.3693 23.0528 18.6971 22.2698 17.9001L22.2533 17.8819L22.245 17.8729L22.2366 17.8637H22.2282C21.8728 17.4926 21.6478 17.2431 21.5535 17.1153C21.3811 16.872 21.3424 16.6256 21.4367 16.376C21.5033 16.1874 21.7534 15.7892 22.1864 15.1807C22.4142 14.8582 22.5946 14.5998 22.7279 14.4051C23.6887 13.0057 24.1053 12.1115 23.9775 11.7221L23.9279 11.6311C23.8945 11.5763 23.8084 11.5262 23.6698 11.4805C23.5308 11.4349 23.3531 11.4274 23.1364 11.4578L20.7373 11.4759C20.6984 11.4608 20.643 11.4622 20.5707 11.4805C20.4984 11.4988 20.4623 11.508 20.4623 11.508L20.4206 11.5308L20.3874 11.5583C20.3596 11.5764 20.3291 11.6084 20.2957 11.654C20.2626 11.6995 20.2348 11.7529 20.2126 11.8137C19.9514 12.5498 19.6545 13.2343 19.3212 13.8669C19.1157 14.2442 18.9269 14.5711 18.7546 14.848C18.5825 15.1247 18.4381 15.3286 18.3215 15.4593C18.2048 15.5901 18.0995 15.6949 18.0049 15.7741C17.9104 15.8533 17.8383 15.8868 17.7884 15.8745C17.7384 15.8623 17.6913 15.8501 17.6466 15.838C17.5689 15.7832 17.5064 15.7087 17.4593 15.6144C17.412 15.5201 17.3801 15.4014 17.3635 15.2585C17.3469 15.1154 17.3371 14.9923 17.3343 14.8889C17.3317 14.7855 17.3329 14.6394 17.3385 14.4508C17.3443 14.2621 17.3469 14.1345 17.3469 14.0675C17.3469 13.8363 17.351 13.5854 17.3593 13.3146C17.3677 13.0439 17.3745 12.8294 17.3802 12.6714C17.3858 12.5132 17.3884 12.3458 17.3884 12.1694C17.3884 11.993 17.3786 11.8546 17.3593 11.7542C17.3401 11.6539 17.3107 11.5565 17.272 11.4621C17.2331 11.3678 17.1761 11.2949 17.1012 11.2431C17.0263 11.1914 16.9331 11.1504 16.8222 11.1199C16.5278 11.0469 16.153 11.0074 15.6975 11.0013C14.6645 10.9892 14.0008 11.0622 13.7065 11.2204C13.5899 11.2872 13.4843 11.3786 13.39 11.4941C13.29 11.628 13.276 11.701 13.3482 11.713C13.6815 11.7677 13.9174 11.8986 14.0563 12.1054L14.1063 12.215C14.1452 12.2941 14.1841 12.4341 14.223 12.6348C14.2618 12.8355 14.2869 13.0576 14.2979 13.3008C14.3256 13.745 14.3256 14.1252 14.2979 14.4415C14.2701 14.758 14.2438 15.0043 14.2188 15.1807C14.1937 15.3572 14.1563 15.5001 14.1063 15.6096C14.0563 15.7191 14.023 15.786 14.0063 15.8103C13.9896 15.8346 13.9757 15.8499 13.9647 15.8559C13.8925 15.8862 13.8174 15.9017 13.7397 15.9017C13.6619 15.9017 13.5676 15.859 13.4565 15.7738C13.3455 15.6886 13.2303 15.5716 13.1108 15.4225C12.9914 15.2734 12.8567 15.065 12.7067 14.7974C12.5568 14.5297 12.4013 14.2134 12.2403 13.8484L12.107 13.5836C12.0237 13.4133 11.9099 13.1654 11.7655 12.84C11.621 12.5144 11.4933 12.1995 11.3823 11.8953C11.3379 11.7676 11.2712 11.6703 11.1824 11.6034L11.1407 11.5759C11.113 11.5516 11.0685 11.5258 11.0074 11.4984C10.9463 11.4709 10.8825 11.4512 10.8158 11.4391L8.53326 11.4572C8.30001 11.4572 8.14175 11.5151 8.05841 11.6307L8.02506 11.6854C8.0084 11.7159 8 11.7645 8 11.8315C8 11.8984 8.01666 11.9806 8.05001 12.0778C8.38322 12.9357 8.74558 13.7631 9.13709 14.56C9.5286 15.357 9.86882 15.999 10.1575 16.4854C10.4463 16.9722 10.7407 17.4316 11.0406 17.8634C11.3405 18.2954 11.539 18.5722 11.6362 18.6938C11.7334 18.8156 11.8098 18.9067 11.8653 18.9676L12.0736 19.1865C12.2069 19.3326 12.4026 19.5075 12.6609 19.7112C12.9192 19.9151 13.2052 20.1159 13.519 20.3137C13.8328 20.5113 14.1979 20.6725 14.6145 20.7972C15.031 20.922 15.4364 20.9721 15.8307 20.948H16.7888C16.983 20.9296 17.1302 20.8626 17.2303 20.7471L17.2634 20.7014C17.2857 20.6651 17.3066 20.6087 17.3259 20.5328C17.3453 20.4567 17.355 20.3729 17.355 20.2818C17.3493 20.0203 17.3675 19.7845 17.4091 19.5747C17.4506 19.3649 17.4979 19.2067 17.5508 19.1001C17.6037 18.9937 17.6634 18.9039 17.7299 18.8311C17.7965 18.7581 17.8439 18.7139 17.8717 18.6987C17.8994 18.6834 17.9215 18.673 17.9382 18.6668C18.0714 18.6181 18.2283 18.6652 18.409 18.8083C18.5895 18.9513 18.7588 19.1278 18.9172 19.3376C19.0755 19.5476 19.2657 19.7832 19.4878 20.0448C19.71 20.3064 19.9043 20.5009 20.0709 20.6289L20.2374 20.7384C20.3487 20.8114 20.4931 20.8784 20.6708 20.9392C20.8482 21 21.0037 21.0152 21.1372 20.9848L23.2697 20.9484C23.4807 20.9484 23.6448 20.9101 23.7612 20.8342C23.8779 20.7582 23.9472 20.6744 23.9695 20.5833C23.9918 20.492 23.993 20.3885 23.9737 20.2728C23.954 20.1574 23.9345 20.0767 23.9151 20.0311Z" fill="#34A5E6"/>
</svg>
