<svg width="167" height="166" viewBox="0 0 167 166" fill="none" xmlns="http://www.w3.org/2000/svg">
<path d="M142.556 83C142.556 116.066 115.984 142.8 83.2918 142.8C50.6 142.8 24.0273 116.066 24.0273 83C24.0273 49.9342 50.6 23.2 83.2918 23.2C115.984 23.2 142.556 49.9342 142.556 83Z" stroke="white" stroke-width="10"/>
<path d="M124.804 83C124.804 106.143 106.203 124.875 83.2917 124.875C60.3806 124.875 41.7793 106.143 41.7793 83C41.7793 59.8574 60.3806 41.125 83.2917 41.125C106.203 41.125 124.804 59.8574 124.804 83Z" stroke="white" stroke-width="4"/>
<path d="M112.027 83.025H166.292" stroke="white" stroke-width="6"/>
<path d="M0.291016 83.025H54.5555" stroke="white" stroke-width="6"/>
<path d="M84.2832 111.875L84.2832 166" stroke="white" stroke-width="6"/>
<path d="M84.2832 0L84.2832 54.125" stroke="white" stroke-width="6"/>
<circle cx="84" cy="83" r="22" fill="white"/>
<path d="M84 71C87.8598 71 91 74.3645 91 78.5C91 82.121 88.5906 85.1525 85.4 85.847V87.5C85.4 88.3295 84.7742 89 84 89C83.2258 89 82.6 88.3295 82.6 87.5V84.5C82.6 83.6705 83.2258 83 84 83C86.3156 83 88.2 80.981 88.2 78.5C88.2 76.019 86.3156 74 84 74C81.6844 74 79.8 76.019 79.8 78.5C79.8 79.3295 79.1742 80 78.4 80C77.6258 80 77 79.3295 77 78.5C77 74.3645 80.1402 71 84 71Z" fill="#F9B024"/>
<path d="M82.6 93.5C82.6 92.6705 83.2258 92 84 92C84.7742 92 85.4 92.6705 85.4 93.5C85.4 94.3295 84.7742 95 84 95C83.2258 95 82.6 94.3295 82.6 93.5Z" fill="#F9B024"/>
</svg>
