<svg width="156" height="14" viewBox="0 0 156 14" fill="none" xmlns="http://www.w3.org/2000/svg">
<path d="M145.008 5.924C145.017 6.344 145.022 6.74067 145.022 7.114C145.022 7.478 145.017 7.87 145.008 8.29C144.999 8.83133 144.919 9.34 144.77 9.816C144.63 10.2827 144.415 10.6887 144.126 11.034C143.837 11.3793 143.468 11.65 143.02 11.846C142.581 12.042 142.054 12.14 141.438 12.14C140.822 12.14 140.29 12.042 139.842 11.846C139.403 11.65 139.039 11.3793 138.75 11.034C138.461 10.6887 138.241 10.2827 138.092 9.816C137.952 9.34 137.877 8.83133 137.868 8.29C137.859 7.87 137.854 7.478 137.854 7.114C137.854 6.74067 137.859 6.344 137.868 5.924C137.877 5.38267 137.952 4.87867 138.092 4.412C138.241 3.936 138.461 3.52533 138.75 3.18C139.039 2.83467 139.403 2.564 139.842 2.368C140.29 2.16267 140.822 2.06 141.438 2.06C142.054 2.06 142.581 2.16267 143.02 2.368C143.468 2.564 143.837 2.83467 144.126 3.18C144.415 3.52533 144.63 3.936 144.77 4.412C144.919 4.87867 144.999 5.38267 145.008 5.924ZM139.184 8.29C139.203 9.17667 139.399 9.83 139.772 10.25C140.155 10.67 140.71 10.88 141.438 10.88C142.166 10.88 142.717 10.67 143.09 10.25C143.473 9.83 143.673 9.17667 143.692 8.29C143.701 7.87 143.706 7.478 143.706 7.114C143.706 6.74067 143.701 6.344 143.692 5.924C143.673 5.03733 143.473 4.384 143.09 3.964C142.717 3.53467 142.166 3.32 141.438 3.32C140.71 3.32 140.155 3.53467 139.772 3.964C139.399 4.384 139.203 5.03733 139.184 5.924C139.175 6.344 139.17 6.74067 139.17 7.114C139.17 7.478 139.175 7.87 139.184 8.29ZM152.831 12C152.728 12 152.64 11.9627 152.565 11.888C152.49 11.8133 152.453 11.7247 152.453 11.622V9.69H148.057C147.954 9.69 147.866 9.65267 147.791 9.578C147.716 9.50333 147.679 9.41467 147.679 9.312V8.808C147.679 8.74267 147.693 8.668 147.721 8.584C147.758 8.49067 147.81 8.40667 147.875 8.332L152.299 2.536C152.374 2.43333 152.453 2.354 152.537 2.298C152.63 2.23267 152.733 2.2 152.845 2.2H153.405C153.508 2.2 153.596 2.23733 153.671 2.312C153.746 2.38667 153.783 2.47533 153.783 2.578V8.43H154.987C155.09 8.43 155.178 8.46733 155.253 8.542C155.328 8.61667 155.365 8.70533 155.365 8.808V9.312C155.365 9.41467 155.328 9.50333 155.253 9.578C155.178 9.65267 155.09 9.69 154.987 9.69H153.783V11.622C153.783 11.7247 153.746 11.8133 153.671 11.888C153.596 11.9627 153.508 12 153.405 12H152.831ZM152.453 8.43V4.482L149.415 8.43H152.453Z" fill="white"/>
<path opacity="0.5" d="M127 7H27" stroke="white" stroke-width="2"/>
<path d="M93 7L27 7" stroke="white" stroke-width="2"/>
<path d="M8.84238 5.924C8.85171 6.344 8.85638 6.74067 8.85638 7.114C8.85638 7.478 8.85171 7.87 8.84238 8.29C8.83304 8.83133 8.75371 9.34 8.60438 9.816C8.46438 10.2827 8.24971 10.6887 7.96038 11.034C7.67104 11.3793 7.30238 11.65 6.85438 11.846C6.41571 12.042 5.88838 12.14 5.27238 12.14C4.65638 12.14 4.12438 12.042 3.67638 11.846C3.23771 11.65 2.87371 11.3793 2.58438 11.034C2.29504 10.6887 2.07571 10.2827 1.92638 9.816C1.78638 9.34 1.71171 8.83133 1.70238 8.29C1.69304 7.87 1.68838 7.478 1.68838 7.114C1.68838 6.74067 1.69304 6.344 1.70238 5.924C1.71171 5.38267 1.78638 4.87867 1.92638 4.412C2.07571 3.936 2.29504 3.52533 2.58438 3.18C2.87371 2.83467 3.23771 2.564 3.67638 2.368C4.12438 2.16267 4.65638 2.06 5.27238 2.06C5.88838 2.06 6.41571 2.16267 6.85438 2.368C7.30238 2.564 7.67104 2.83467 7.96038 3.18C8.24971 3.52533 8.46438 3.936 8.60438 4.412C8.75371 4.87867 8.83304 5.38267 8.84238 5.924ZM3.01838 8.29C3.03704 9.17667 3.23304 9.83 3.60638 10.25C3.98904 10.67 4.54438 10.88 5.27238 10.88C6.00038 10.88 6.55104 10.67 6.92438 10.25C7.30704 9.83 7.50771 9.17667 7.52638 8.29C7.53571 7.87 7.54038 7.478 7.54038 7.114C7.54038 6.74067 7.53571 6.344 7.52638 5.924C7.50771 5.03733 7.30704 4.384 6.92438 3.964C6.55104 3.53467 6.00038 3.32 5.27238 3.32C4.54438 3.32 3.98904 3.53467 3.60638 3.964C3.23304 4.384 3.03704 5.03733 3.01838 5.924C3.00904 6.344 3.00438 6.74067 3.00438 7.114C3.00438 7.478 3.00904 7.87 3.01838 8.29ZM15.9654 11.622C15.9654 11.7247 15.9281 11.8133 15.8534 11.888C15.7788 11.9627 15.6901 12 15.5874 12H15.0134C14.9108 12 14.8221 11.9627 14.7474 11.888C14.6728 11.8133 14.6354 11.7247 14.6354 11.622V3.908L12.3674 5.63C12.2834 5.70467 12.1901 5.73267 12.0874 5.714C11.9848 5.69533 11.9008 5.64867 11.8354 5.574L11.4994 5.14C11.4341 5.056 11.4061 4.96267 11.4154 4.86C11.4341 4.75733 11.4854 4.67333 11.5694 4.608L14.5654 2.312C14.6401 2.256 14.7148 2.22333 14.7894 2.214C14.8641 2.20467 14.9388 2.2 15.0134 2.2H15.5874C15.6901 2.2 15.7788 2.23733 15.8534 2.312C15.9281 2.38667 15.9654 2.47533 15.9654 2.578V11.622Z" fill="white"/>
</svg>
